<svg width="20" height="21" viewBox="0 0 20 21" fill="none" xmlns="http://www.w3.org/2000/svg">
<path fill-rule="evenodd" clip-rule="evenodd" d="M7.40377 12.8738C10.3804 12.8738 12.7935 10.3784 12.7935 7.30023C12.7935 4.22205 10.3804 1.7267 7.40377 1.7267C4.42711 1.7267 2.01405 4.22205 2.01405 7.30023C2.01405 10.3784 4.42711 12.8738 7.40377 12.8738ZM7.40377 14.2671C11.1246 14.2671 14.1409 11.148 14.1409 7.30023C14.1409 3.45251 11.1246 0.333313 7.40377 0.333313C3.68295 0.333313 0.666626 3.45251 0.666626 7.30023C0.666626 11.148 3.68295 14.2671 7.40377 14.2671Z" fill="black"/>
<path fill-rule="evenodd" clip-rule="evenodd" d="M18.3805 20.3333L10.9697 12.6697L11.9224 11.6844L19.3333 19.348L18.3805 20.3333Z" fill="black"/>
</svg>
