<svg width="32" height="32" viewBox="0 0 32 32" fill="none" xmlns="http://www.w3.org/2000/svg">
<path fill-rule="evenodd" clip-rule="evenodd" d="M12 8.66667C12 5.33333 14.6667 4 16 4H17.3333C18.6667 4 21.3333 5.33333 21.3333 8.66667V12H20V8.66667C20 6 18 5.33333 17.3333 5.33333H16C15.3333 5.33333 13.3333 6 13.3333 8.66667V12H12V8.66667Z" fill="black"/>
<path fill-rule="evenodd" clip-rule="evenodd" d="M4 12C4 10.6667 5.33333 9.33333 6.66667 9.33333H8V10.6667H6.66667C5.93029 10.6667 5.33333 11.2636 5.33333 12V24C5.33333 24.7364 5.93029 25.3333 6.66667 25.3333H26.6667C27.403 25.3333 28 25.3333 28 24V12C28 11.2636 27.403 10.6667 26.6667 10.6667H12V9.33333H26.6667C28 9.33333 29.3333 10.6667 29.3333 12V24C29.3333 25.3333 28 26.6667 26.6667 26.6667H6.66667C5.33333 26.6667 4 25.3333 4 24V12Z" fill="black"/>
</svg>
