<svg width="56" height="56" viewBox="0 0 56 56" fill="none" xmlns="http://www.w3.org/2000/svg">
<path fill-rule="evenodd" clip-rule="evenodd" d="M0 28C0 12.536 12.536 0 28 0C43.464 0 56 12.536 56 28C56 43.464 43.464 56 28 56C12.536 56 0 43.464 0 28ZM28.0014 13.0667C23.9457 13.0667 23.4367 13.0844 21.8438 13.1569C20.254 13.2297 19.1689 13.4814 18.2193 13.8507C17.2372 14.2321 16.404 14.7423 15.5739 15.5727C14.7433 16.4027 14.233 17.2359 13.8504 18.2178C13.4801 19.1676 13.2281 20.2531 13.1566 21.8423C13.0853 23.4352 13.0667 23.9445 13.0667 28.0002C13.0667 32.0558 13.0847 32.5633 13.1569 34.1562C13.23 35.746 13.4817 36.8311 13.8507 37.7807C14.2324 38.7628 14.7426 39.596 15.573 40.4261C16.4027 41.2567 17.2359 41.7682 18.2175 42.1496C19.1676 42.5189 20.2531 42.7706 21.8426 42.8434C23.4355 42.9159 23.9442 42.9336 27.9995 42.9336C32.0555 42.9336 32.563 42.9159 34.1559 42.8434C35.7457 42.7706 36.8321 42.5189 37.7822 42.1496C38.7641 41.7682 39.596 41.2567 40.4257 40.4261C41.2564 39.596 41.7667 38.7628 42.1493 37.781C42.5164 36.8311 42.7684 35.7457 42.8431 34.1565C42.9147 32.5636 42.9333 32.0558 42.9333 28.0002C42.9333 23.9445 42.9147 23.4355 42.8431 21.8426C42.7684 20.2528 42.5164 19.1676 42.1493 18.2181C41.7667 17.2359 41.2564 16.4027 40.4257 15.5727C39.5951 14.742 38.7644 14.2318 37.7813 13.8507C36.8293 13.4814 35.7435 13.2297 34.1537 13.1569C32.5608 13.0844 32.0537 13.0667 27.9967 13.0667H28.0014Z" fill="url(#paint0_linear_305_53)"/>
<path fill-rule="evenodd" clip-rule="evenodd" d="M26.6617 15.7578C27.0593 15.7572 27.503 15.7578 28.0014 15.7578C31.9886 15.7578 32.4612 15.7721 34.0358 15.8437C35.4918 15.9103 36.282 16.1535 36.8084 16.3579C37.5053 16.6286 38.0022 16.9522 38.5245 17.4748C39.0472 17.9975 39.3708 18.4953 39.6421 19.1922C39.8465 19.718 40.0901 20.5082 40.1563 21.9642C40.2279 23.5385 40.2434 24.0114 40.2434 27.9967C40.2434 31.9821 40.2279 32.455 40.1563 34.0292C40.0897 35.4853 39.8465 36.2755 39.6421 36.8013C39.3714 37.4982 39.0472 37.9944 38.5245 38.5168C38.0019 39.0394 37.5056 39.363 36.8084 39.6337C36.2826 39.839 35.4918 40.0817 34.0358 40.1482C32.4615 40.2198 31.9886 40.2353 28.0014 40.2353C24.0138 40.2353 23.5413 40.2198 21.967 40.1482C20.511 40.081 19.7208 39.8377 19.1941 39.6333C18.4972 39.3627 17.9994 39.0391 17.4767 38.5164C16.954 37.9938 16.6305 37.4972 16.3592 36.8C16.1548 36.2742 15.9112 35.484 15.8449 34.028C15.7734 32.4538 15.759 31.9809 15.759 27.993C15.759 24.0051 15.7734 23.5347 15.8449 21.9605C15.9115 20.5045 16.1548 19.7142 16.3592 19.1878C16.6299 18.4909 16.954 17.9932 17.4767 17.4705C17.9994 16.9478 18.4972 16.6243 19.1941 16.353C19.7205 16.1476 20.511 15.905 21.967 15.8381C23.3446 15.7758 23.8785 15.7572 26.6617 15.7541V15.7578ZM35.9728 18.2374C34.9834 18.2374 34.1808 19.0391 34.1808 20.0288C34.1808 21.0181 34.9834 21.8208 35.9728 21.8208C36.9621 21.8208 37.7648 21.0181 37.7648 20.0288C37.7648 19.0394 36.9621 18.2374 35.9728 18.2374ZM28.0014 20.3312C23.7662 20.3312 20.3324 23.765 20.3324 28.0002C20.3324 32.2354 23.7662 35.6676 28.0014 35.6676C32.2366 35.6676 35.6691 32.2354 35.6691 28.0002C35.6691 23.765 32.2366 20.3312 28.0014 20.3312Z" fill="url(#paint1_linear_305_53)"/>
<path fill-rule="evenodd" clip-rule="evenodd" d="M28.0014 23.0223C30.7504 23.0223 32.9792 25.2508 32.9792 28.0002C32.9792 30.7492 30.7504 32.978 28.0014 32.978C25.2521 32.978 23.0236 30.7492 23.0236 28.0002C23.0236 25.2508 25.2521 23.0223 28.0014 23.0223Z" fill="url(#paint2_linear_305_53)"/>
<defs>
<linearGradient id="paint0_linear_305_53" x1="28" y1="0" x2="28" y2="56" gradientUnits="userSpaceOnUse">
<stop stop-color="#F7935B"/>
<stop offset="1" stop-color="#D630F1"/>
</linearGradient>
<linearGradient id="paint1_linear_305_53" x1="28" y1="0" x2="28" y2="56" gradientUnits="userSpaceOnUse">
<stop stop-color="#F7935B"/>
<stop offset="1" stop-color="#D630F1"/>
</linearGradient>
<linearGradient id="paint2_linear_305_53" x1="28" y1="0" x2="28" y2="56" gradientUnits="userSpaceOnUse">
<stop stop-color="#F7935B"/>
<stop offset="1" stop-color="#D630F1"/>
</linearGradient>
</defs>
</svg>
