<svg width="179" height="28" viewBox="0 0 179 28" fill="none" xmlns="http://www.w3.org/2000/svg">
<path d="M16.74 0.612V27.468H11.88V0.612H0V0.0720015H29.016V0.612H16.74Z" fill="black"/>
<path d="M39.8104 17.928L33.1144 5.292L26.5624 17.928H39.8104ZM35.0944 0L49.5664 27.396H44.8144L40.0624 18.432H26.2744L21.6664 27.36H20.9464L35.0944 0Z" fill="black"/>
<path d="M84.3129 27.396H79.8848V1.62L67.3928 27.36L54.6848 2.52V27.396H53.9288V0H58.3208L69.3368 21.528L79.8848 0H84.3129V27.396Z" fill="black"/>
<path d="M106.783 17.928L100.087 5.292L93.535 17.928H106.783ZM102.067 0L116.539 27.396H111.787L107.035 18.432H93.247L88.639 27.36H87.919L102.067 0Z" fill="black"/>
<path d="M146.678 27.432H141.637L128.93 12.096L125.762 14.4V27.396H120.902V0H125.762V13.536L144.41 0H145.598L132.35 9.612L146.678 27.432Z" fill="black"/>
<path d="M168.447 17.928L161.751 5.292L155.199 17.928H168.447ZM163.731 0L178.203 27.396H173.451L168.699 18.432H154.911L150.303 27.36H149.583L163.731 0Z" fill="black"/>
</svg>
