<svg width="25" height="26" viewBox="0 0 25 26" fill="none" xmlns="http://www.w3.org/2000/svg">
<path d="M17.5524 0.5H7.44764C3.34099 0.5 0 3.84099 0 7.94764V18.0524C0 22.159 3.34099 25.5 7.44764 25.5H17.5524C21.659 25.5 25 22.159 25 18.0524V7.94764C25 3.84099 21.659 0.5 17.5524 0.5ZM22.485 18.0524C22.485 20.7766 20.2766 22.985 17.5524 22.985H7.44764C4.72344 22.985 2.515 20.7766 2.515 18.0524V7.94764C2.515 5.22339 4.72344 3.015 7.44764 3.015H17.5524C20.2766 3.015 22.485 5.22339 22.485 7.94764V18.0524Z" fill="white"/>
<path d="M12.5 6.53409C8.93468 6.53409 6.03409 9.43468 6.03409 12.9999C6.03409 16.5652 8.93468 19.4658 12.5 19.4658C16.0653 19.4658 18.9659 16.5652 18.9659 12.9999C18.9659 9.43463 16.0653 6.53409 12.5 6.53409ZM12.5 16.9509C10.3179 16.9509 8.54909 15.182 8.54909 13C8.54909 10.8179 10.318 9.04909 12.5 9.04909C14.682 9.04909 16.4509 10.8179 16.4509 13C16.4509 15.182 14.682 16.9509 12.5 16.9509Z" fill="white"/>
<path d="M18.9783 8.13201C19.834 8.13201 20.5277 7.43834 20.5277 6.58265C20.5277 5.72696 19.834 5.03329 18.9783 5.03329C18.1226 5.03329 17.429 5.72696 17.429 6.58265C17.429 7.43834 18.1226 8.13201 18.9783 8.13201Z" fill="white"/>
</svg>
